<mxfile host="app.diagrams.net" modified="2021-02-16T15:40:38.023Z" agent="5.0 (X11)" etag="49Ik7iUKlPlLyyWD641O" version="14.3.2" type="github">
  <diagram name="Page-1" id="13e1069c-82ec-6db2-03f1-153e76fe0fe0">
    <mxGraphModel dx="981" dy="553" grid="1" gridSize="10" guides="1" tooltips="1" connect="1" arrows="1" fold="1" page="1" pageScale="1" pageWidth="1100" pageHeight="850" background="#ffffff" math="0" shadow="0">
      <root>
        <mxCell id="0" />
        <mxCell id="1" parent="0" />
        <mxCell id="7baba1c4bc27f4b0-3" value=":SAP CX" style="shape=umlLifeline;perimeter=lifelinePerimeter;whiteSpace=wrap;html=1;container=1;collapsible=0;recursiveResize=0;outlineConnect=0;rounded=1;shadow=0;comic=0;labelBackgroundColor=none;strokeWidth=1;fontFamily=Verdana;fontSize=12;align=center;" parent="1" vertex="1">
          <mxGeometry x="400" y="80" width="100" height="580" as="geometry" />
        </mxCell>
        <mxCell id="7baba1c4bc27f4b0-13" value="" style="html=1;points=[];perimeter=orthogonalPerimeter;rounded=0;shadow=0;comic=0;labelBackgroundColor=none;strokeWidth=1;fontFamily=Verdana;fontSize=12;align=center;" parent="7baba1c4bc27f4b0-3" vertex="1">
          <mxGeometry x="45" y="80" width="10" height="80" as="geometry" />
        </mxCell>
        <mxCell id="yacgWs6S20IWa_EJ3ZdP-11" value="" style="html=1;points=[];perimeter=orthogonalPerimeter;" parent="7baba1c4bc27f4b0-3" vertex="1">
          <mxGeometry x="45" y="400" width="10" height="80" as="geometry" />
        </mxCell>
        <mxCell id="7baba1c4bc27f4b0-4" value=":BO VOO" style="shape=umlLifeline;perimeter=lifelinePerimeter;whiteSpace=wrap;html=1;container=1;collapsible=0;recursiveResize=0;outlineConnect=0;rounded=1;shadow=0;comic=0;labelBackgroundColor=none;strokeWidth=1;fontFamily=Verdana;fontSize=12;align=center;" parent="1" vertex="1">
          <mxGeometry x="540" y="80" width="100" height="580" as="geometry" />
        </mxCell>
        <mxCell id="yacgWs6S20IWa_EJ3ZdP-4" value="" style="html=1;points=[];perimeter=orthogonalPerimeter;" parent="7baba1c4bc27f4b0-4" vertex="1">
          <mxGeometry x="45" y="81" width="10" height="80" as="geometry" />
        </mxCell>
        <mxCell id="yacgWs6S20IWa_EJ3ZdP-7" value="" style="html=1;points=[];perimeter=orthogonalPerimeter;" parent="7baba1c4bc27f4b0-4" vertex="1">
          <mxGeometry x="45" y="200" width="10" height="160" as="geometry" />
        </mxCell>
        <mxCell id="yacgWs6S20IWa_EJ3ZdP-8" value="" style="html=1;points=[];perimeter=orthogonalPerimeter;" parent="7baba1c4bc27f4b0-4" vertex="1">
          <mxGeometry x="50" y="220" width="10" height="40" as="geometry" />
        </mxCell>
        <mxCell id="yacgWs6S20IWa_EJ3ZdP-9" value="self call" style="edgeStyle=orthogonalEdgeStyle;html=1;align=left;spacingLeft=2;endArrow=block;rounded=0;entryX=1;entryY=0;" parent="7baba1c4bc27f4b0-4" target="yacgWs6S20IWa_EJ3ZdP-8" edge="1">
          <mxGeometry relative="1" as="geometry">
            <mxPoint x="55" y="200" as="sourcePoint" />
            <Array as="points">
              <mxPoint x="80" y="200" />
            </Array>
          </mxGeometry>
        </mxCell>
        <mxCell id="7baba1c4bc27f4b0-5" value=":SAP CDC" style="shape=umlLifeline;perimeter=lifelinePerimeter;whiteSpace=wrap;html=1;container=1;collapsible=0;recursiveResize=0;outlineConnect=0;rounded=1;shadow=0;comic=0;labelBackgroundColor=none;strokeWidth=1;fontFamily=Verdana;fontSize=12;align=center;" parent="1" vertex="1">
          <mxGeometry x="680" y="80" width="100" height="580" as="geometry" />
        </mxCell>
        <mxCell id="yacgWs6S20IWa_EJ3ZdP-10" value="" style="html=1;points=[];perimeter=orthogonalPerimeter;" parent="7baba1c4bc27f4b0-5" vertex="1">
          <mxGeometry x="45" y="280" width="10" height="80" as="geometry" />
        </mxCell>
        <mxCell id="yacgWs6S20IWa_EJ3ZdP-12" value="" style="html=1;points=[];perimeter=orthogonalPerimeter;" parent="7baba1c4bc27f4b0-5" vertex="1">
          <mxGeometry x="45" y="400" width="10" height="80" as="geometry" />
        </mxCell>
        <mxCell id="yacgWs6S20IWa_EJ3ZdP-1" value="" style="shape=umlLifeline;participant=umlActor;perimeter=lifelinePerimeter;whiteSpace=wrap;html=1;container=1;collapsible=0;recursiveResize=0;verticalAlign=top;spacingTop=36;outlineConnect=0;" parent="1" vertex="1">
          <mxGeometry x="279" y="80" width="20" height="580" as="geometry" />
        </mxCell>
        <mxCell id="yacgWs6S20IWa_EJ3ZdP-2" value="" style="html=1;points=[];perimeter=orthogonalPerimeter;" parent="yacgWs6S20IWa_EJ3ZdP-1" vertex="1">
          <mxGeometry x="5" y="80" width="10" height="80" as="geometry" />
        </mxCell>
        <mxCell id="yacgWs6S20IWa_EJ3ZdP-3" value="" style="html=1;points=[];perimeter=orthogonalPerimeter;" parent="yacgWs6S20IWa_EJ3ZdP-1" vertex="1">
          <mxGeometry x="5" y="400" width="10" height="80" as="geometry" />
        </mxCell>
        <mxCell id="yacgWs6S20IWa_EJ3ZdP-13" value="dispatch" style="html=1;verticalAlign=bottom;endArrow=block;entryX=0;entryY=0.025;entryDx=0;entryDy=0;entryPerimeter=0;" parent="1" source="yacgWs6S20IWa_EJ3ZdP-2" target="7baba1c4bc27f4b0-13" edge="1">
          <mxGeometry width="80" relative="1" as="geometry">
            <mxPoint x="290" y="161" as="sourcePoint" />
            <mxPoint x="449.5" y="161" as="targetPoint" />
          </mxGeometry>
        </mxCell>
        <mxCell id="yacgWs6S20IWa_EJ3ZdP-14" value="dispatch" style="html=1;verticalAlign=bottom;endArrow=block;exitX=0.9;exitY=0.175;exitDx=0;exitDy=0;exitPerimeter=0;" parent="1" edge="1">
          <mxGeometry width="80" relative="1" as="geometry">
            <mxPoint x="454" y="161" as="sourcePoint" />
            <mxPoint x="589.5" y="161" as="targetPoint" />
          </mxGeometry>
        </mxCell>
        <mxCell id="yacgWs6S20IWa_EJ3ZdP-15" value="dispatch" style="html=1;verticalAlign=bottom;endArrow=block;entryX=0.2;entryY=0.063;entryDx=0;entryDy=0;entryPerimeter=0;" parent="1" edge="1">
          <mxGeometry width="80" relative="1" as="geometry">
            <mxPoint x="595" y="360.03999999999996" as="sourcePoint" />
            <mxPoint x="727" y="360.03999999999996" as="targetPoint" />
          </mxGeometry>
        </mxCell>
        <mxCell id="40GGkk0t6mN_fzsmlvxg-1" value="login()" style="html=1;verticalAlign=bottom;endArrow=block;exitX=0.328;exitY=0.01;exitDx=0;exitDy=0;exitPerimeter=0;" edge="1" parent="1" source="yacgWs6S20IWa_EJ3ZdP-3" target="7baba1c4bc27f4b0-3">
          <mxGeometry width="80" relative="1" as="geometry">
            <mxPoint x="299" y="479.99999999999994" as="sourcePoint" />
            <mxPoint x="431" y="479.99999999999994" as="targetPoint" />
          </mxGeometry>
        </mxCell>
        <mxCell id="40GGkk0t6mN_fzsmlvxg-2" value="accounts.login" style="html=1;verticalAlign=bottom;endArrow=block;exitX=0.366;exitY=-0.007;exitDx=0;exitDy=0;exitPerimeter=0;" edge="1" parent="1" source="yacgWs6S20IWa_EJ3ZdP-11" target="7baba1c4bc27f4b0-5">
          <mxGeometry width="80" relative="1" as="geometry">
            <mxPoint x="460" y="479.99999999999994" as="sourcePoint" />
            <mxPoint x="592" y="479.99999999999994" as="targetPoint" />
          </mxGeometry>
        </mxCell>
      </root>
    </mxGraphModel>
  </diagram>
</mxfile>
